# xmcd
#
# Track frame offsets: 
#        150
#        6304
#        18812
#        35886
#        56363
#        72871
#        85070
#        98919
#        117667
#        141391
#        159851
#        177462
#        196093
#        211823
#
# Disc length: 3004 seconds
#
# Revision: 1
# Processed by: cddbd v1.5.2PL0 Copyright (c) Steve Scherf et al.
# Submitted via: ExactAudioCopy v0.95b4
#
DISCID=bb0bba0e
DTITLE=Orchestra Da Tre Soldi - Orchestra Da Tre Soldi
DYEAR=2007
DGENRE=Jazz
TTITLE0=Momon
TTITLE1=I'm A Stranger Here Myself
TTITLE2=Nannas Lied
TTITLE3=Place De Clichy 1. Promenade/Les Tziganes
TTITLE4=Place De Clichy 2. Musette
TTITLE5=Place De Clichy 3. L'Ours Qui Danse
TTITLE6=Namorico Da Rita
TTITLE7=Speak Low
TTITLE8=Enfin Je Vois Claire
TTITLE9=Sabià
TTITLE10=Yari
TTITLE11=Nuages/Sympathique
TTITLE12=Oupa Tsoupa/Ninska Banja
TTITLE13=Le Reve De Pantagruel
EXTD=YEAR: 2007
EXTT0=
EXTT1=
EXTT2=
EXTT3=
EXTT4=
EXTT5=
EXTT6=
EXTT7=
EXTT8=
EXTT9=
EXTT10=
EXTT11=
EXTT12=
EXTT13=
PLAYORDER=
